%TF.GenerationSoftware,KiCad,Pcbnew,9.0.7*%
%TF.CreationDate,2026-03-15T22:35:46+05:00*%
%TF.ProjectId,KASHAF MACROPAD,4b415348-4146-4204-9d41-43524f504144,rev?*%
%TF.SameCoordinates,Original*%
%TF.FileFunction,Copper,L2,Bot*%
%TF.FilePolarity,Positive*%
%FSLAX46Y46*%
G04 Gerber Fmt 4.6, Leading zero omitted, Abs format (unit mm)*
G04 Created by KiCad (PCBNEW 9.0.7) date 2026-03-15 22:35:46*
%MOMM*%
%LPD*%
G01*
G04 APERTURE LIST*
G04 Aperture macros list*
%AMRoundRect*
0 Rectangle with rounded corners*
0 $1 Rounding radius*
0 $2 $3 $4 $5 $6 $7 $8 $9 X,Y pos of 4 corners*
0 Add a 4 corners polygon primitive as box body*
4,1,4,$2,$3,$4,$5,$6,$7,$8,$9,$2,$3,0*
0 Add four circle primitives for the rounded corners*
1,1,$1+$1,$2,$3*
1,1,$1+$1,$4,$5*
1,1,$1+$1,$6,$7*
1,1,$1+$1,$8,$9*
0 Add four rect primitives between the rounded corners*
20,1,$1+$1,$2,$3,$4,$5,0*
20,1,$1+$1,$4,$5,$6,$7,0*
20,1,$1+$1,$6,$7,$8,$9,0*
20,1,$1+$1,$8,$9,$2,$3,0*%
G04 Aperture macros list end*
%TA.AperFunction,ComponentPad*%
%ADD10C,2.300000*%
%TD*%
%TA.AperFunction,ComponentPad*%
%ADD11R,1.500000X1.500000*%
%TD*%
%TA.AperFunction,ComponentPad*%
%ADD12C,1.600000*%
%TD*%
%TA.AperFunction,ComponentPad*%
%ADD13C,1.800000*%
%TD*%
%TA.AperFunction,ComponentPad*%
%ADD14RoundRect,0.450000X0.450000X0.450000X-0.450000X0.450000X-0.450000X-0.450000X0.450000X-0.450000X0*%
%TD*%
%TA.AperFunction,ComponentPad*%
%ADD15RoundRect,0.337500X-0.562500X-0.337500X0.562500X-0.337500X0.562500X0.337500X-0.562500X0.337500X0*%
%TD*%
%TA.AperFunction,ComponentPad*%
%ADD16RoundRect,0.337500X0.337500X-0.562500X0.337500X0.562500X-0.337500X0.562500X-0.337500X-0.562500X0*%
%TD*%
%TA.AperFunction,ComponentPad*%
%ADD17RoundRect,0.400000X0.400000X0.400000X-0.400000X0.400000X-0.400000X-0.400000X0.400000X-0.400000X0*%
%TD*%
%TA.AperFunction,ComponentPad*%
%ADD18RoundRect,0.250000X-0.650000X-1.400000X0.650000X-1.400000X0.650000X1.400000X-0.650000X1.400000X0*%
%TD*%
%TA.AperFunction,ComponentPad*%
%ADD19O,1.800000X3.300000*%
%TD*%
%TA.AperFunction,ComponentPad*%
%ADD20RoundRect,0.400000X-0.400000X-0.400000X0.400000X-0.400000X0.400000X0.400000X-0.400000X0.400000X0*%
%TD*%
%TA.AperFunction,ComponentPad*%
%ADD21R,1.250000X1.250000*%
%TD*%
%TA.AperFunction,ComponentPad*%
%ADD22O,1.250000X1.250000*%
%TD*%
%TA.AperFunction,ViaPad*%
%ADD23C,0.600000*%
%TD*%
%TA.AperFunction,Conductor*%
%ADD24C,0.600000*%
%TD*%
%ADD25C,0.300000*%
%ADD26C,0.350000*%
G04 APERTURE END LIST*
D10*
%TO.P,SW20,1,1*%
%TO.N,ROW2*%
X78190000Y-95860000D03*
%TO.P,SW20,2,2*%
%TO.N,Net-(D32-A)*%
X84540000Y-93320000D03*
%TD*%
%TO.P,SW23,1,1*%
%TO.N,ROW3*%
X97270000Y-76860000D03*
%TO.P,SW23,2,2*%
%TO.N,Net-(D35-A)*%
X103620000Y-74320000D03*
%TD*%
%TO.P,SW24,1,1*%
%TO.N,ROW3*%
X97310000Y-95860000D03*
%TO.P,SW24,2,2*%
%TO.N,Net-(D36-A)*%
X103660000Y-93320000D03*
%TD*%
D11*
%TO.P,ON/OFF1,1,A*%
%TO.N,unconnected-(ON/OFF1-A-Pad1)*%
X181000000Y-41400000D03*
D12*
%TO.P,ON/OFF1,2,B*%
%TO.N,Net-(J1-Pin_1)*%
X181000000Y-43940000D03*
%TO.P,ON/OFF1,3,C*%
%TO.N,Net-(ON/OFF1-C)*%
X181000000Y-38860000D03*
%TD*%
D13*
%TO.P,U2,1,P0.02*%
%TO.N,ROW0*%
X156910000Y-34012500D03*
%TO.P,U2,2,P0.03*%
%TO.N,ROW1*%
X156910000Y-36552500D03*
%TO.P,U2,3,P0.28*%
%TO.N,ROW2*%
X156910000Y-39092500D03*
%TO.P,U2,4,P0.29*%
%TO.N,ROW3*%
X156910000Y-41632500D03*
%TO.P,U2,5,P0.04*%
%TO.N,COL0*%
X156910000Y-44172500D03*
%TO.P,U2,6,P0.05*%
%TO.N,COL1*%
X156910000Y-46712500D03*
%TO.P,U2,7,P1.11*%
%TO.N,COL2*%
X156910000Y-49252500D03*
%TO.P,U2,8,5V*%
%TO.N,unconnected-(U2-5V-Pad8)*%
X172150000Y-34012500D03*
D14*
%TO.P,U2,9,GND*%
%TO.N,GND*%
X172150000Y-36552500D03*
D13*
%TO.P,U2,10,3V3*%
%TO.N,Net-(U1-VDD)*%
X172150000Y-39092500D03*
%TO.P,U2,11,P1.15*%
%TO.N,Net-(U1-MOSI)*%
X172150000Y-41632500D03*
%TO.P,U2,12,P1.14*%
%TO.N,Net-(U1-MISO)*%
X172150000Y-44172500D03*
%TO.P,U2,13,P1.13*%
%TO.N,Net-(U1-SCLK)*%
X172150000Y-46712500D03*
%TO.P,U2,14,P1.12*%
%TO.N,COL3*%
X172150000Y-49252500D03*
D15*
%TO.P,U2,15,BAT-*%
%TO.N,GND*%
X160084999Y-39410000D03*
%TO.P,U2,16,BAT+*%
%TO.N,Net-(ON/OFF1-C)*%
X160084998Y-41315000D03*
D16*
%TO.P,U2,17,P0.09*%
%TO.N,Net-(U1-~{CS})*%
X168340000Y-50840000D03*
%TO.P,U2,18,P0.10*%
%TO.N,Net-(U2-P0.10)*%
X170245000Y-50840000D03*
D13*
%TO.P,U2,19,DIO*%
%TO.N,Net-(U2-DIO)*%
X163260000Y-33060000D03*
%TO.P,U2,20,CLK*%
%TO.N,unconnected-(U2-CLK-Pad20)*%
X165800000Y-33060000D03*
%TO.P,U2,21,RST*%
%TO.N,unconnected-(U2-RST-Pad21)*%
X163260000Y-35600000D03*
D14*
%TO.P,U2,22,GND*%
%TO.N,GND*%
X165800000Y-35600000D03*
%TD*%
D10*
%TO.P,SW27,1,1*%
%TO.N,ROW1*%
X116190000Y-76800000D03*
%TO.P,SW27,2,2*%
%TO.N,Net-(D39-A)*%
X122540000Y-74260000D03*
%TD*%
%TO.P,SW29,1,1*%
%TO.N,ROW1*%
X135200000Y-38600000D03*
%TO.P,SW29,2,2*%
%TO.N,Net-(D41-A)*%
X141550000Y-36060000D03*
%TD*%
%TO.P,SW32,1,1*%
%TO.N,ROW0*%
X135510000Y-95860000D03*
%TO.P,SW32,2,2*%
%TO.N,Net-(D44-A)*%
X141860000Y-93320000D03*
%TD*%
%TO.P,SW21,1,1*%
%TO.N,ROW3*%
X97200000Y-38600000D03*
%TO.P,SW21,2,2*%
%TO.N,Net-(D33-A)*%
X103550000Y-36060000D03*
%TD*%
D12*
%TO.P,mouseClick1,*%
%TO.N,*%
X191990000Y-65860000D03*
X191990000Y-70940000D03*
D17*
%TO.P,mouseClick1,1,A*%
%TO.N,unconnected-(mouseClick1-A-Pad1)*%
X186910000Y-65860000D03*
D12*
%TO.P,mouseClick1,2,B*%
%TO.N,Net-(U2-P0.10)*%
X186910000Y-68400000D03*
%TO.P,mouseClick1,3,C*%
%TO.N,GND*%
X186910000Y-70940000D03*
%TD*%
D10*
%TO.P,SW31,1,1*%
%TO.N,ROW1*%
X135250000Y-76740000D03*
%TO.P,SW31,2,2*%
%TO.N,Net-(D43-A)*%
X141600000Y-74200000D03*
%TD*%
D18*
%TO.P,J1,1,Pin_1*%
%TO.N,Net-(J1-Pin_1)*%
X186500000Y-36000000D03*
X186500000Y-44200000D03*
D19*
%TO.P,J1,2,Pin_2*%
%TO.N,GND*%
X190000000Y-36000000D03*
X190000000Y-44200000D03*
%TD*%
D10*
%TO.P,SW26,1,1*%
%TO.N,ROW0*%
X116200000Y-57600000D03*
%TO.P,SW26,2,2*%
%TO.N,Net-(D38-A)*%
X122550000Y-55060000D03*
%TD*%
D12*
%TO.P,mouseClick2,*%
%TO.N,*%
X160800000Y-70480000D03*
X160800000Y-65400000D03*
D20*
%TO.P,mouseClick2,1,A*%
%TO.N,unconnected-(mouseClick2-A-Pad1)*%
X165880000Y-70480000D03*
D12*
%TO.P,mouseClick2,2,B*%
%TO.N,Net-(U2-DIO)*%
X165880000Y-67940000D03*
%TO.P,mouseClick2,3,C*%
%TO.N,GND*%
X165880000Y-65400000D03*
%TD*%
D10*
%TO.P,SW17,1,1*%
%TO.N,ROW2*%
X78200000Y-38600000D03*
%TO.P,SW17,2,2*%
%TO.N,Net-(D1-A)*%
X84550000Y-36060000D03*
%TD*%
%TO.P,SW19,1,1*%
%TO.N,ROW2*%
X78190000Y-76860000D03*
%TO.P,SW19,2,2*%
%TO.N,Net-(D31-A)*%
X84540000Y-74320000D03*
%TD*%
%TO.P,SW28,1,1*%
%TO.N,ROW0*%
X116510000Y-95860000D03*
%TO.P,SW28,2,2*%
%TO.N,Net-(D40-A)*%
X122860000Y-93320000D03*
%TD*%
%TO.P,SW30,1,1*%
%TO.N,ROW0*%
X135190000Y-57660000D03*
%TO.P,SW30,2,2*%
%TO.N,Net-(D42-A)*%
X141540000Y-55120000D03*
%TD*%
%TO.P,SW25,1,1*%
%TO.N,ROW1*%
X116200000Y-38600000D03*
%TO.P,SW25,2,2*%
%TO.N,Net-(D37-A)*%
X122550000Y-36060000D03*
%TD*%
%TO.P,SW22,1,1*%
%TO.N,ROW3*%
X97250000Y-57740000D03*
%TO.P,SW22,2,2*%
%TO.N,Net-(D34-A)*%
X103600000Y-55200000D03*
%TD*%
D21*
%TO.P,U1,1,NC*%
%TO.N,unconnected-(U1-NC-Pad1)*%
X169650000Y-95500000D03*
D22*
%TO.P,U1,2,NC*%
%TO.N,unconnected-(U1-NC-Pad2)*%
X171430000Y-95500000D03*
%TO.P,U1,3,VDDPIX*%
%TO.N,Net-(U1-MISO)*%
X173210000Y-95500000D03*
%TO.P,U1,4,VDD*%
%TO.N,Net-(U1-VDD)*%
X174990000Y-95500000D03*
%TO.P,U1,5,VDDIO*%
X176770000Y-95500000D03*
%TO.P,U1,6,NC*%
%TO.N,unconnected-(U1-NC-Pad6)*%
X178550000Y-95500000D03*
%TO.P,U1,7,~{RESET}*%
%TO.N,unconnected-(U1-~{RESET}-Pad7)*%
X180330000Y-95500000D03*
%TO.P,U1,8,GND*%
%TO.N,GND*%
X182110000Y-95500000D03*
%TO.P,U1,9,MOTION*%
%TO.N,unconnected-(U1-MOTION-Pad9)*%
X183000000Y-84800000D03*
%TO.P,U1,10,SCLK*%
%TO.N,Net-(U1-SCLK)*%
X181220000Y-84800000D03*
%TO.P,U1,11,MOSI*%
%TO.N,Net-(U1-MOSI)*%
X179440000Y-84800000D03*
%TO.P,U1,12,MISO*%
%TO.N,Net-(U1-MISO)*%
X177660000Y-84800000D03*
%TO.P,U1,13,~{CS}*%
%TO.N,Net-(U1-~{CS})*%
X175880000Y-84800000D03*
%TO.P,U1,14,NC*%
%TO.N,unconnected-(U1-NC-Pad14)*%
X174100000Y-84800000D03*
%TO.P,U1,15,LED_P*%
%TO.N,unconnected-(U1-LED_P-Pad15)*%
X172320000Y-84800000D03*
%TO.P,U1,16,NC*%
%TO.N,unconnected-(U1-NC-Pad16)*%
X170540000Y-84800000D03*
%TD*%
D10*
%TO.P,SW18,1,1*%
%TO.N,ROW2*%
X78190000Y-57660000D03*
%TO.P,SW18,2,2*%
%TO.N,Net-(D30-A)*%
X84540000Y-55120000D03*
%TD*%
D23*
%TO.N,Net-(D1-A)*%
X86442300Y-31366500D03*
%TO.N,COL1*%
X124661100Y-52387400D03*
X121600000Y-70098700D03*
X121992500Y-87975100D03*
%TO.N,COL2*%
X139368500Y-34156300D03*
X155091700Y-63332900D03*
X140002300Y-48797700D03*
%TO.N,COL3*%
X136477900Y-87975100D03*
X139880100Y-70098700D03*
X142279100Y-57914700D03*
%TO.N,Net-(D32-A)*%
X84180000Y-88230300D03*
%TO.N,Net-(D33-A)*%
X104855200Y-30487600D03*
%TO.N,Net-(D34-A)*%
X103981700Y-49076100D03*
%TO.N,Net-(D38-A)*%
X121650000Y-51443700D03*
%TO.N,Net-(D42-A)*%
X143075100Y-51436900D03*
%TO.N,GND*%
X184292500Y-97085800D03*
%TO.N,Net-(U2-P0.10)*%
X172094000Y-66953600D03*
%TO.N,Net-(ON/OFF1-C)*%
X168974100Y-40752200D03*
%TO.N,ROW2*%
X78839100Y-65674100D03*
X151248900Y-65034700D03*
%TO.N,ROW3*%
X154203100Y-64139900D03*
%TO.N,Net-(U1-SCLK)*%
X180768800Y-49478100D03*
%TO.N,Net-(U1-MISO)*%
X166019900Y-82016300D03*
%TD*%
D24*
%TO.N,Net-(D1-A)*%
X86442300Y-34167700D02*
X86442300Y-31366500D01*
X84550000Y-36060000D02*
X86442300Y-34167700D01*
%TO.N,COL1*%
X121600000Y-70098700D02*
X120542400Y-71156300D01*
X120542400Y-71156300D02*
X120542400Y-75193900D01*
X120542400Y-75193900D02*
X123099400Y-77750900D01*
X124661100Y-52387400D02*
X124661100Y-56445800D01*
X123099400Y-77750900D02*
X123099400Y-86868200D01*
X124661100Y-56445800D02*
X123109500Y-57997400D01*
X123109500Y-57997400D02*
X123109500Y-68589200D01*
X123109500Y-68589200D02*
X121600000Y-70098700D01*
X123099400Y-86868200D02*
X121992500Y-87975100D01*
%TO.N,COL2*%
X142109400Y-46690600D02*
X140002300Y-48797700D01*
X139368500Y-37076500D02*
X142109400Y-39817400D01*
X142109400Y-39817400D02*
X142109400Y-46690600D01*
X156910000Y-61514600D02*
X156910000Y-49252500D01*
X139368500Y-34156300D02*
X139368500Y-37076500D01*
X155091700Y-63332900D02*
X156910000Y-61514600D01*
%TO.N,COL3*%
X139880100Y-70098700D02*
X139612100Y-70366700D01*
X142099500Y-67879300D02*
X139880100Y-70098700D01*
X139612100Y-74972200D02*
X142128900Y-77489000D01*
X139612100Y-70366700D02*
X139612100Y-74972200D01*
X142128900Y-77489000D02*
X142128900Y-82324100D01*
X142099500Y-58094300D02*
X142099500Y-67879300D01*
X142279100Y-57914700D02*
X142099500Y-58094300D01*
X142128900Y-82324100D02*
X136477900Y-87975100D01*
%TO.N,Net-(D32-A)*%
X84540000Y-93320000D02*
X84540000Y-88590300D01*
X84540000Y-88590300D02*
X84180000Y-88230300D01*
%TO.N,Net-(D33-A)*%
X104855200Y-30487600D02*
X103550000Y-31792800D01*
X103550000Y-31792800D02*
X103550000Y-36060000D01*
%TO.N,Net-(D34-A)*%
X103600000Y-49457800D02*
X103600000Y-55200000D01*
X103981700Y-49076100D02*
X103600000Y-49457800D01*
%TO.N,Net-(D38-A)*%
X122550000Y-52343700D02*
X122550000Y-55060000D01*
X121650000Y-51443700D02*
X122550000Y-52343700D01*
%TO.N,Net-(D42-A)*%
X143075100Y-53584900D02*
X143075100Y-51436900D01*
X141540000Y-55120000D02*
X143075100Y-53584900D01*
%TO.N,GND*%
X165880000Y-65400000D02*
X165880000Y-35680000D01*
X190000000Y-44200000D02*
X190000000Y-67850000D01*
X190000000Y-67850000D02*
X186910000Y-70940000D01*
X165880000Y-35680000D02*
X165800000Y-35600000D01*
X186910000Y-94468300D02*
X186910000Y-70940000D01*
X184292500Y-97085800D02*
X186910000Y-94468300D01*
X190000000Y-44200000D02*
X190000000Y-36000000D01*
%TO.N,Net-(J1-Pin_1)*%
X186500000Y-44200000D02*
X186500000Y-36000000D01*
%TO.N,Net-(U2-P0.10)*%
X170245000Y-65104600D02*
X170245000Y-50840000D01*
X172094000Y-66953600D02*
X170245000Y-65104600D01*
%TO.N,Net-(U2-DIO)*%
X163340000Y-65400000D02*
X165880000Y-67940000D01*
X161537700Y-34782300D02*
X161537700Y-38357100D01*
X161537700Y-38357100D02*
X163340000Y-40159400D01*
X163340000Y-40159400D02*
X163340000Y-65400000D01*
X163260000Y-33060000D02*
X161537700Y-34782300D01*
%TO.N,Net-(ON/OFF1-C)*%
X171457100Y-32295300D02*
X168974100Y-34778300D01*
X168974100Y-34778300D02*
X168974100Y-40752200D01*
X174435300Y-32295300D02*
X171457100Y-32295300D01*
X181000000Y-38860000D02*
X174435300Y-32295300D01*
%TO.N,ROW2*%
X78190000Y-66323200D02*
X78839100Y-65674100D01*
X151248900Y-65034700D02*
X151248900Y-44753600D01*
X78200000Y-38600000D02*
X78910500Y-39310500D01*
X151248900Y-44753600D02*
X156910000Y-39092500D01*
X78190000Y-57660000D02*
X78900500Y-58370500D01*
X78190000Y-95860000D02*
X78900500Y-95149500D01*
X78910500Y-56939500D02*
X78190000Y-57660000D01*
X78900500Y-65612700D02*
X78839100Y-65674100D01*
X78910500Y-39310500D02*
X78910500Y-56939500D01*
X78900500Y-77570500D02*
X78190000Y-76860000D01*
X78190000Y-76860000D02*
X78190000Y-66323200D01*
X78900500Y-58370500D02*
X78900500Y-65612700D01*
X78900500Y-95149500D02*
X78900500Y-77570500D01*
%TO.N,ROW3*%
X97910500Y-39310500D02*
X97910500Y-57079500D01*
X154203100Y-64139900D02*
X154497800Y-64434600D01*
X97980500Y-77570500D02*
X97270000Y-76860000D01*
X97910500Y-57079500D02*
X97250000Y-57740000D01*
X97980500Y-95189500D02*
X97980500Y-77570500D01*
X97250000Y-57740000D02*
X97925200Y-58415200D01*
X154497800Y-64434600D02*
X155602000Y-64434600D01*
X158611700Y-43334200D02*
X156910000Y-41632500D01*
X97310000Y-95860000D02*
X97980500Y-95189500D01*
X97925200Y-58415200D02*
X97925200Y-76204800D01*
X155602000Y-64434600D02*
X158611700Y-61424900D01*
X158611700Y-61424900D02*
X158611700Y-43334200D01*
X97200000Y-38600000D02*
X97910500Y-39310500D01*
X97925200Y-76204800D02*
X97270000Y-76860000D01*
%TO.N,ROW1*%
X116858900Y-46719400D02*
X116858900Y-38600000D01*
X112996400Y-50581900D02*
X116858900Y-46719400D01*
X116858900Y-38600000D02*
X116200000Y-38600000D01*
X112996400Y-73606400D02*
X112996400Y-50581900D01*
X117376300Y-38082600D02*
X116858900Y-38600000D01*
X116190000Y-76800000D02*
X112996400Y-73606400D01*
X135200000Y-38600000D02*
X134682600Y-38082600D01*
X134682600Y-38082600D02*
X117376300Y-38082600D01*
%TO.N,ROW0*%
X135900500Y-58370500D02*
X135190000Y-57660000D01*
X132036800Y-69618200D02*
X135900500Y-65754500D01*
X135190000Y-55732500D02*
X156910000Y-34012500D01*
X135190000Y-57660000D02*
X135190000Y-55732500D01*
X135900500Y-65754500D02*
X135900500Y-58370500D01*
X135510000Y-95860000D02*
X132036800Y-92386800D01*
X132036800Y-92386800D02*
X132036800Y-69618200D01*
%TO.N,Net-(U1-SCLK)*%
X181220000Y-49929300D02*
X180768800Y-49478100D01*
X181220000Y-84800000D02*
X181220000Y-49929300D01*
%TO.N,Net-(U1-VDD)*%
X182893500Y-96926700D02*
X176770000Y-96926700D01*
X184958700Y-94861500D02*
X182893500Y-96926700D01*
X172150000Y-39092500D02*
X184958700Y-51901200D01*
X184958700Y-51901200D02*
X184958700Y-94861500D01*
X176770000Y-95500000D02*
X176770000Y-96926700D01*
%TO.N,Net-(U1-MISO)*%
X177660000Y-49682500D02*
X177660000Y-84800000D01*
X166019900Y-94865600D02*
X166019900Y-82016300D01*
X173210000Y-96926700D02*
X168081000Y-96926700D01*
X173210000Y-95500000D02*
X173210000Y-96926700D01*
X168081000Y-96926700D02*
X166019900Y-94865600D01*
X172150000Y-44172500D02*
X177660000Y-49682500D01*
%TO.N,Net-(U1-~{CS})*%
X175880000Y-73136900D02*
X168340000Y-65596900D01*
X168340000Y-65596900D02*
X168340000Y-50840000D01*
X175880000Y-84800000D02*
X175880000Y-73136900D01*
%TO.N,Net-(U1-MOSI)*%
X179440000Y-48922500D02*
X179440000Y-84800000D01*
X172150000Y-41632500D02*
X179440000Y-48922500D01*
%TD*%
D25*
X86442300Y-31366500D03*
X124661100Y-52387400D03*
X121600000Y-70098700D03*
X121992500Y-87975100D03*
X139368500Y-34156300D03*
X155091700Y-63332900D03*
X140002300Y-48797700D03*
X136477900Y-87975100D03*
X139880100Y-70098700D03*
X142279100Y-57914700D03*
X84180000Y-88230300D03*
X104855200Y-30487600D03*
X103981700Y-49076100D03*
X121650000Y-51443700D03*
X143075100Y-51436900D03*
X184292500Y-97085800D03*
X172094000Y-66953600D03*
X168974100Y-40752200D03*
X78839100Y-65674100D03*
X151248900Y-65034700D03*
X154203100Y-64139900D03*
X180768800Y-49478100D03*
X166019900Y-82016300D03*
D26*
X76920000Y-98400000D03*
X82000000Y-98400000D03*
X87080000Y-98400000D03*
X78190000Y-95860000D03*
X84540000Y-93320000D03*
X96000000Y-79400000D03*
X101080000Y-79400000D03*
X106160000Y-79400000D03*
X97270000Y-76860000D03*
X103620000Y-74320000D03*
X96040000Y-98400000D03*
X101120000Y-98400000D03*
X106200000Y-98400000D03*
X97310000Y-95860000D03*
X103660000Y-93320000D03*
X181000000Y-41400000D03*
X181000000Y-43940000D03*
X181000000Y-38860000D03*
X156910000Y-34012500D03*
X156910000Y-36552500D03*
X156910000Y-39092500D03*
X156910000Y-41632500D03*
X156910000Y-44172500D03*
X156910000Y-46712500D03*
X156910000Y-49252500D03*
X172150000Y-34012500D03*
X172150000Y-36552500D03*
X172150000Y-39092500D03*
X172150000Y-41632500D03*
X172150000Y-44172500D03*
X172150000Y-46712500D03*
X172150000Y-49252500D03*
X160084999Y-39410000D03*
X160084998Y-41315000D03*
X168340000Y-50840000D03*
X170245000Y-50840000D03*
X163260000Y-33060000D03*
X165800000Y-33060000D03*
X163260000Y-35600000D03*
X165800000Y-35600000D03*
X114920000Y-79340000D03*
X120000000Y-79340000D03*
X125080000Y-79340000D03*
X116190000Y-76800000D03*
X122540000Y-74260000D03*
X133930000Y-41140000D03*
X139010000Y-41140000D03*
X144090000Y-41140000D03*
X135200000Y-38600000D03*
X141550000Y-36060000D03*
X134240000Y-98400000D03*
X139320000Y-98400000D03*
X144400000Y-98400000D03*
X135510000Y-95860000D03*
X141860000Y-93320000D03*
X95930000Y-41140000D03*
X101010000Y-41140000D03*
X106090000Y-41140000D03*
X97200000Y-38600000D03*
X103550000Y-36060000D03*
X191990000Y-65860000D03*
X191990000Y-70940000D03*
X186910000Y-65860000D03*
X186910000Y-68400000D03*
X186910000Y-70940000D03*
X133980000Y-79280000D03*
X139060000Y-79280000D03*
X144140000Y-79280000D03*
X135250000Y-76740000D03*
X141600000Y-74200000D03*
X186500000Y-36000000D03*
X186500000Y-44200000D03*
X190000000Y-36000000D03*
X190000000Y-44200000D03*
X114930000Y-60140000D03*
X120010000Y-60140000D03*
X125090000Y-60140000D03*
X116200000Y-57600000D03*
X122550000Y-55060000D03*
X160800000Y-70480000D03*
X160800000Y-65400000D03*
X165880000Y-70480000D03*
X165880000Y-67940000D03*
X165880000Y-65400000D03*
X76930000Y-41140000D03*
X82010000Y-41140000D03*
X87090000Y-41140000D03*
X78200000Y-38600000D03*
X84550000Y-36060000D03*
X76920000Y-79400000D03*
X82000000Y-79400000D03*
X87080000Y-79400000D03*
X78190000Y-76860000D03*
X84540000Y-74320000D03*
X115240000Y-98400000D03*
X120320000Y-98400000D03*
X125400000Y-98400000D03*
X116510000Y-95860000D03*
X122860000Y-93320000D03*
X133920000Y-60200000D03*
X139000000Y-60200000D03*
X144080000Y-60200000D03*
X135190000Y-57660000D03*
X141540000Y-55120000D03*
X114930000Y-41140000D03*
X120010000Y-41140000D03*
X125090000Y-41140000D03*
X116200000Y-38600000D03*
X122550000Y-36060000D03*
X95980000Y-60280000D03*
X101060000Y-60280000D03*
X106140000Y-60280000D03*
X97250000Y-57740000D03*
X103600000Y-55200000D03*
X169650000Y-95500000D03*
X171430000Y-95500000D03*
X173210000Y-95500000D03*
X174990000Y-95500000D03*
X176770000Y-95500000D03*
X178550000Y-95500000D03*
X180330000Y-95500000D03*
X182110000Y-95500000D03*
X183000000Y-84800000D03*
X181220000Y-84800000D03*
X179440000Y-84800000D03*
X177660000Y-84800000D03*
X175880000Y-84800000D03*
X174100000Y-84800000D03*
X172320000Y-84800000D03*
X170540000Y-84800000D03*
X76920000Y-60200000D03*
X82000000Y-60200000D03*
X87080000Y-60200000D03*
X78190000Y-57660000D03*
X84540000Y-55120000D03*
M02*
