%TF.GenerationSoftware,KiCad,Pcbnew,9.0.7*%
%TF.CreationDate,2026-03-15T22:35:46+05:00*%
%TF.ProjectId,KASHAF MACROPAD,4b415348-4146-4204-9d41-43524f504144,rev?*%
%TF.SameCoordinates,Original*%
%TF.FileFunction,Paste,Top*%
%TF.FilePolarity,Positive*%
%FSLAX46Y46*%
G04 Gerber Fmt 4.6, Leading zero omitted, Abs format (unit mm)*
G04 Created by KiCad (PCBNEW 9.0.7) date 2026-03-15 22:35:46*
%MOMM*%
%LPD*%
G01*
G04 APERTURE LIST*
G04 Aperture macros list*
%AMRoundRect*
0 Rectangle with rounded corners*
0 $1 Rounding radius*
0 $2 $3 $4 $5 $6 $7 $8 $9 X,Y pos of 4 corners*
0 Add a 4 corners polygon primitive as box body*
4,1,4,$2,$3,$4,$5,$6,$7,$8,$9,$2,$3,0*
0 Add four circle primitives for the rounded corners*
1,1,$1+$1,$2,$3*
1,1,$1+$1,$4,$5*
1,1,$1+$1,$6,$7*
1,1,$1+$1,$8,$9*
0 Add four rect primitives between the rounded corners*
20,1,$1+$1,$2,$3,$4,$5,0*
20,1,$1+$1,$4,$5,$6,$7,0*
20,1,$1+$1,$6,$7,$8,$9,0*
20,1,$1+$1,$8,$9,$2,$3,0*%
G04 Aperture macros list end*
%ADD10RoundRect,0.225000X-0.225000X-0.375000X0.225000X-0.375000X0.225000X0.375000X-0.225000X0.375000X0*%
%ADD11C,0.350000*%
G04 APERTURE END LIST*
D10*
%TO.C,D1*%
X81400000Y-32000000D03*
X84700000Y-32000000D03*
%TD*%
%TO.C,D37*%
X120150000Y-32400000D03*
X123450000Y-32400000D03*
%TD*%
%TO.C,D44*%
X139150000Y-89000000D03*
X142450000Y-89000000D03*
%TD*%
%TO.C,D43*%
X138400000Y-69600000D03*
X141700000Y-69600000D03*
%TD*%
%TO.C,D31*%
X81400000Y-69400000D03*
X84700000Y-69400000D03*
%TD*%
%TO.C,D33*%
X100600000Y-31600000D03*
X103900000Y-31600000D03*
%TD*%
%TO.C,D32*%
X82200000Y-88600000D03*
X85500000Y-88600000D03*
%TD*%
%TO.C,D39*%
X119950000Y-69600000D03*
X123250000Y-69600000D03*
%TD*%
%TO.C,D34*%
X100400000Y-51000000D03*
X103700000Y-51000000D03*
%TD*%
%TO.C,D41*%
X139150000Y-32000000D03*
X142450000Y-32000000D03*
%TD*%
%TO.C,D42*%
X138600000Y-50200000D03*
X141900000Y-50200000D03*
%TD*%
%TO.C,D40*%
X120350000Y-89000000D03*
X123650000Y-89000000D03*
%TD*%
%TO.C,D35*%
X101200000Y-70000000D03*
X104500000Y-70000000D03*
%TD*%
%TO.C,D30*%
X81150000Y-51600000D03*
X84450000Y-51600000D03*
%TD*%
%TO.C,D38*%
X120000000Y-50400000D03*
X123300000Y-50400000D03*
%TD*%
%TO.C,D36*%
X100950000Y-89000000D03*
X104250000Y-89000000D03*
%TD*%
D11*
X76920000Y-98400000D03*
X82000000Y-98400000D03*
X87080000Y-98400000D03*
X78190000Y-95860000D03*
X84540000Y-93320000D03*
X96000000Y-79400000D03*
X101080000Y-79400000D03*
X106160000Y-79400000D03*
X97270000Y-76860000D03*
X103620000Y-74320000D03*
X96040000Y-98400000D03*
X101120000Y-98400000D03*
X106200000Y-98400000D03*
X97310000Y-95860000D03*
X103660000Y-93320000D03*
X181000000Y-41400000D03*
X181000000Y-43940000D03*
X181000000Y-38860000D03*
X156910000Y-34012500D03*
X156910000Y-36552500D03*
X156910000Y-39092500D03*
X156910000Y-41632500D03*
X156910000Y-44172500D03*
X156910000Y-46712500D03*
X156910000Y-49252500D03*
X172150000Y-34012500D03*
X172150000Y-36552500D03*
X172150000Y-39092500D03*
X172150000Y-41632500D03*
X172150000Y-44172500D03*
X172150000Y-46712500D03*
X172150000Y-49252500D03*
X160084999Y-39410000D03*
X160084998Y-41315000D03*
X168340000Y-50840000D03*
X170245000Y-50840000D03*
X163260000Y-33060000D03*
X165800000Y-33060000D03*
X163260000Y-35600000D03*
X165800000Y-35600000D03*
X114920000Y-79340000D03*
X120000000Y-79340000D03*
X125080000Y-79340000D03*
X116190000Y-76800000D03*
X122540000Y-74260000D03*
X133930000Y-41140000D03*
X139010000Y-41140000D03*
X144090000Y-41140000D03*
X135200000Y-38600000D03*
X141550000Y-36060000D03*
X134240000Y-98400000D03*
X139320000Y-98400000D03*
X144400000Y-98400000D03*
X135510000Y-95860000D03*
X141860000Y-93320000D03*
X95930000Y-41140000D03*
X101010000Y-41140000D03*
X106090000Y-41140000D03*
X97200000Y-38600000D03*
X103550000Y-36060000D03*
X191990000Y-65860000D03*
X191990000Y-70940000D03*
X186910000Y-65860000D03*
X186910000Y-68400000D03*
X186910000Y-70940000D03*
X133980000Y-79280000D03*
X139060000Y-79280000D03*
X144140000Y-79280000D03*
X135250000Y-76740000D03*
X141600000Y-74200000D03*
X186500000Y-36000000D03*
X186500000Y-44200000D03*
X190000000Y-36000000D03*
X190000000Y-44200000D03*
X114930000Y-60140000D03*
X120010000Y-60140000D03*
X125090000Y-60140000D03*
X116200000Y-57600000D03*
X122550000Y-55060000D03*
X160800000Y-70480000D03*
X160800000Y-65400000D03*
X165880000Y-70480000D03*
X165880000Y-67940000D03*
X165880000Y-65400000D03*
X76930000Y-41140000D03*
X82010000Y-41140000D03*
X87090000Y-41140000D03*
X78200000Y-38600000D03*
X84550000Y-36060000D03*
X76920000Y-79400000D03*
X82000000Y-79400000D03*
X87080000Y-79400000D03*
X78190000Y-76860000D03*
X84540000Y-74320000D03*
X115240000Y-98400000D03*
X120320000Y-98400000D03*
X125400000Y-98400000D03*
X116510000Y-95860000D03*
X122860000Y-93320000D03*
X133920000Y-60200000D03*
X139000000Y-60200000D03*
X144080000Y-60200000D03*
X135190000Y-57660000D03*
X141540000Y-55120000D03*
X114930000Y-41140000D03*
X120010000Y-41140000D03*
X125090000Y-41140000D03*
X116200000Y-38600000D03*
X122550000Y-36060000D03*
X95980000Y-60280000D03*
X101060000Y-60280000D03*
X106140000Y-60280000D03*
X97250000Y-57740000D03*
X103600000Y-55200000D03*
X169650000Y-95500000D03*
X171430000Y-95500000D03*
X173210000Y-95500000D03*
X174990000Y-95500000D03*
X176770000Y-95500000D03*
X178550000Y-95500000D03*
X180330000Y-95500000D03*
X182110000Y-95500000D03*
X183000000Y-84800000D03*
X181220000Y-84800000D03*
X179440000Y-84800000D03*
X177660000Y-84800000D03*
X175880000Y-84800000D03*
X174100000Y-84800000D03*
X172320000Y-84800000D03*
X170540000Y-84800000D03*
X76920000Y-60200000D03*
X82000000Y-60200000D03*
X87080000Y-60200000D03*
X78190000Y-57660000D03*
X84540000Y-55120000D03*
M02*
