M48
; DRILL file {KiCad 9.0.7} date 2026-03-15T22:35:47+0500
; FORMAT={-:-/ absolute / metric / decimal}
; #@! TF.CreationDate,2026-03-15T22:35:47+05:00
; #@! TF.GenerationSoftware,Kicad,Pcbnew,9.0.7
; #@! TF.FileFunction,Plated,1,2,PTH
FMAT,2
METRIC
; #@! TA.AperFunction,Plated,PTH,ViaDrill
T1C0.300
; #@! TA.AperFunction,Plated,PTH,ComponentDrill
T2C0.750
; #@! TA.AperFunction,Plated,PTH,ComponentDrill
T3C0.800
; #@! TA.AperFunction,Plated,PTH,ComponentDrill
T4C0.890
; #@! TA.AperFunction,Plated,PTH,ComponentDrill
T5C1.000
; #@! TA.AperFunction,Plated,PTH,ComponentDrill
T6C1.050
; #@! TA.AperFunction,Plated,PTH,ComponentDrill
T7C1.100
; #@! TA.AperFunction,Plated,PTH,ComponentDrill
T8C1.524
%
G90
G05
T1
X78.839Y-65.674
X84.18Y-88.23
X86.442Y-31.366
X103.982Y-49.076
X104.855Y-30.488
X121.6Y-70.099
X121.65Y-51.444
X121.992Y-87.975
X124.661Y-52.387
X136.478Y-87.975
X139.368Y-34.156
X139.88Y-70.099
X140.002Y-48.798
X142.279Y-57.915
X143.075Y-51.437
X151.249Y-65.035
X154.203Y-64.14
X155.092Y-63.333
X166.02Y-82.016
X168.974Y-40.752
X172.094Y-66.954
X180.769Y-49.478
X184.292Y-97.086
T2
X169.65Y-95.5
X170.54Y-84.8
X171.43Y-95.5
X172.32Y-84.8
X173.21Y-95.5
X174.1Y-84.8
X174.99Y-95.5
X175.88Y-84.8
X176.77Y-95.5
X177.66Y-84.8
X178.55Y-95.5
X179.44Y-84.8
X180.33Y-95.5
X181.22Y-84.8
X182.11Y-95.5
X183.0Y-84.8
T3
X181.0Y-38.86
X181.0Y-41.4
X181.0Y-43.94
T4
X160.8Y-65.4
X160.8Y-70.48
X165.88Y-65.4
X165.88Y-67.94
X165.88Y-70.48
X186.91Y-65.86
X186.91Y-68.4
X186.91Y-70.94
X191.99Y-65.86
X191.99Y-70.94
T5
X156.91Y-34.012
X156.91Y-36.552
X156.91Y-39.093
X156.91Y-41.633
X156.91Y-44.172
X156.91Y-46.712
X156.91Y-49.252
X172.15Y-34.012
X172.15Y-36.552
X172.15Y-39.093
X172.15Y-41.633
X172.15Y-44.172
X172.15Y-46.712
X172.15Y-49.252
T6
X160.085Y-41.315
X160.085Y-39.41
X163.26Y-33.06
X163.26Y-35.6
X165.8Y-33.06
X165.8Y-35.6
X168.34Y-50.84
X170.245Y-50.84
T7
X186.5Y-36.0
X186.5Y-44.2
X190.0Y-36.0
X190.0Y-44.2
T8
X78.19Y-57.66
X78.19Y-76.86
X78.19Y-95.86
X78.2Y-38.6
X84.54Y-55.12
X84.54Y-74.32
X84.54Y-93.32
X84.55Y-36.06
X97.2Y-38.6
X97.25Y-57.74
X97.27Y-76.86
X97.31Y-95.86
X103.55Y-36.06
X103.6Y-55.2
X103.62Y-74.32
X103.66Y-93.32
X116.19Y-76.8
X116.2Y-38.6
X116.2Y-57.6
X116.51Y-95.86
X122.54Y-74.26
X122.55Y-36.06
X122.55Y-55.06
X122.86Y-93.32
X135.19Y-57.66
X135.2Y-38.6
X135.25Y-76.74
X135.51Y-95.86
X141.54Y-55.12
X141.55Y-36.06
X141.6Y-74.2
X141.86Y-93.32
M30
